<svg viewBox="0 0 89 16" xmlns="http://www.w3.org/2000/svg" fill-rule="evenodd" clip-rule="evenodd" stroke-linejoin="round" stroke-miterlimit="1.414"><path d="M3.58 3.6v.88h2.8v1.8h-2.8v8.84H1.34V6.28H0v-1.8h1.34v-.82c0-1.12.336-2.01 1.01-2.67C3.023.33 3.836 0 4.79 0c.953 0 1.823.353 2.61 1.06l-.92 1.58c-.44-.467-.9-.7-1.38-.7-.48 0-.854.15-1.12.45-.267.3-.4.703-.4 1.21zM13.18 13.28c.973 0 1.776-.324 2.41-.97.633-.647.95-1.484.95-2.51 0-1.027-.317-1.864-.95-2.51-.634-.647-1.437-.97-2.41-.97-.974 0-1.777.323-2.41.97-.634.646-.95 1.483-.95 2.51 0 1.026.316 1.863.95 2.51.633.646 1.436.97 2.41.97zm0 2c-1.6 0-2.934-.53-4-1.59-1.067-1.06-1.6-2.357-1.6-3.89 0-1.534.533-2.83 1.6-3.89 1.066-1.06 2.4-1.59 4-1.59s2.933.53 4 1.59c1.066 1.06 1.6 2.356 1.6 3.89 0 1.533-.534 2.83-1.6 3.89-1.067 1.06-2.4 1.59-4 1.59zM26.22 13.28c.973 0 1.776-.324 2.41-.97.633-.647.95-1.484.95-2.51 0-1.027-.317-1.864-.95-2.51-.634-.647-1.437-.97-2.41-.97-.974 0-1.777.323-2.41.97-.634.646-.95 1.483-.95 2.51 0 1.026.316 1.863.95 2.51.633.646 1.436.97 2.41.97zm0 2c-1.6 0-2.934-.53-4-1.59-1.067-1.06-1.6-2.357-1.6-3.89 0-1.534.533-2.83 1.6-3.89 1.066-1.06 2.4-1.59 4-1.59s2.933.53 4 1.59c1.066 1.06 1.6 2.356 1.6 3.89 0 1.533-.534 2.83-1.6 3.89-1.067 1.06-2.4 1.59-4 1.59zM35.18 13.76c-1-1.014-1.5-2.347-1.5-4 0-1.654.513-2.974 1.54-3.96 1.026-.987 2.25-1.48 3.67-1.48s2.563.6 3.43 1.8V.28h2.24v14.84h-2.24v-1.6c-.827 1.173-2.034 1.76-3.62 1.76-1.347 0-2.52-.507-3.52-1.52zm1.72-1.42c.653.64 1.42.96 2.3.96.88 0 1.626-.324 2.24-.97.613-.647.92-1.477.92-2.49 0-1.014-.307-1.86-.92-2.54-.614-.68-1.367-1.02-2.26-1.02-.894 0-1.66.34-2.3 1.02-.64.68-.96 1.53-.96 2.55 0 1.02.326 1.85.98 2.49zM47.8.28h2.24v14.84H47.8z" fill-rule="nonzero"/><g transform="matrix(.18651 0 0 .18651 51.81 3.32)"><clipPath id="a"><path d="M0 0h64v64H0z"/></clipPath><g clip-path="url(#a)"><path d="M47.199 4c-6.727 0-12.516 5.472-15.198 11.188C29.317 9.473 23.527 4 16.8 4 7.526 4 0 11.527 0 20.802c0 18.865 19.031 23.812 32.001 42.464C44.261 44.73 64 39.066 64 20.802 64 11.528 56.473 4 47.199 4z" fill="#2bb16b" fill-rule="nonzero"/></g></g><path d="M68.96 15.12L64.68 4.48H67l3.24 8.04 3.24-8.04h2.32l-4.28 10.64h-2.56zM87.48 10.78h-8.34c.053.773.406 1.396 1.06 1.87.653.473 1.4.71 2.24.71 1.333 0 2.346-.42 3.04-1.26l1.28 1.4c-1.147 1.186-2.64 1.78-4.48 1.78-1.494 0-2.764-.497-3.81-1.49-1.047-.994-1.57-2.327-1.57-4 0-1.674.533-3.004 1.6-3.99 1.066-.987 2.323-1.48 3.77-1.48 1.446 0 2.676.436 3.69 1.31 1.013.873 1.52 2.076 1.52 3.61v1.54zm-8.34-1.76h6.1c0-.894-.28-1.58-.84-2.06-.56-.48-1.25-.72-2.07-.72-.82 0-1.557.25-2.21.75-.654.5-.98 1.176-.98 2.03z" fill-rule="nonzero"/></svg>